<svg id="Шар_1" data-name="Шар 1" xmlns="http://www.w3.org/2000/svg" width="156.3" height="12" viewBox="0 0 156.3 12"><defs><style>.cls-1{fill:#b1b5c4;}</style></defs><path class="cls-1" d="M139.82,6.5h-3v-1h3Zm-11,0h-4v-1h4Zm-12,0h-4v-1h4Zm-12,0h-4v-1h4Zm-12,0h-4v-1h4Zm-12,0h-4v-1h4Zm-12,0h-4v-1h4Zm-12,0h-4v-1h4Zm-12,0h-4v-1h4Zm-12,0h-4v-1h4Zm-12,0h-4v-1h4Z"/><path class="cls-1" d="M6,12a6,6,0,1,1,6-6A6,6,0,0,1,6,12ZM6,2a4,4,0,1,0,4,4A4,4,0,0,0,6,2Z"/><path class="cls-1" d="M150.3,12a6,6,0,1,1,6-6A6,6,0,0,1,150.3,12Zm0-10a4,4,0,1,0,4,4A4,4,0,0,0,150.3,2Z"/></svg>