<svg width="28" height="28" viewBox="0 0 28 28" fill="none" xmlns="http://www.w3.org/2000/svg">
<path fill-rule="evenodd" clip-rule="evenodd" d="M17.8743 19.7598C16.068 21.1639 13.7984 22 11.3334 22C5.44238 22 0.666748 17.2244 0.666748 11.3334C0.666748 5.44232 5.44238 0.666687 11.3334 0.666687C17.2245 0.666687 22.0001 5.44232 22.0001 11.3334C22.0001 13.7983 21.164 16.068 19.7599 17.8742L26.9429 25.0572C27.4636 25.5779 27.4636 26.4221 26.9429 26.9428C26.4222 27.4635 25.578 27.4635 25.0573 26.9428L17.8743 19.7598ZM19.3334 11.3334C19.3334 15.7516 15.7517 19.3334 11.3334 19.3334C6.91514 19.3334 3.33341 15.7516 3.33341 11.3334C3.33341 6.91508 6.91514 3.33335 11.3334 3.33335C15.7517 3.33335 19.3334 6.91508 19.3334 11.3334Z" fill="#777E91"/>
</svg>
