<svg width="32" height="32" viewBox="0 0 32 32" fill="none" xmlns="http://www.w3.org/2000/svg">
<rect width="32" height="32" rx="16" fill="#3772FF"/>
<path fill-rule="evenodd" clip-rule="evenodd" d="M10.6211 8.82798C8.78878 9.05702 7.37465 10.452 7.11717 12.2806C6.96145 13.3865 6.83337 14.6932 6.83337 16C6.83337 17.3068 6.96145 18.6135 7.11717 19.7194C7.37465 21.548 8.78879 22.943 10.6211 23.172C12.0205 23.3469 13.8572 23.5 16 23.5C18.1429 23.5 19.9796 23.3469 21.379 23.172C23.2113 22.943 24.6254 21.548 24.8829 19.7194C25.0386 18.6135 25.1667 17.3068 25.1667 16C25.1667 14.6932 25.0386 13.3865 24.8829 12.2806C24.6254 10.452 23.2113 9.05702 21.379 8.82798C19.9796 8.65306 18.1429 8.5 16 8.5C13.8572 8.5 12.0205 8.65306 10.6211 8.82798ZM19.036 15.2933L14.775 12.6302C14.22 12.2833 13.5 12.6823 13.5 13.3369V18.6631C13.5 19.3177 14.22 19.7167 14.775 19.3698L19.036 16.7067C19.5583 16.3803 19.5583 15.6197 19.036 15.2933Z" fill="#FCFCFD"/>
</svg>
