<svg width="40" height="40" viewBox="0 0 40 40" fill="none" xmlns="http://www.w3.org/2000/svg">
<g id="Icons/Android/Filled">
<path id="Vector" d="M10 19.1667C10 18.7065 10.3731 18.3333 10.8333 18.3333H29.1667C29.6268 18.3333 30 18.7065 30 19.1667V26.6667C30 28.8437 28.6087 30.6958 26.6667 31.3822V35C26.6667 35.9205 25.9205 36.6667 25 36.6667C24.0795 36.6667 23.3333 35.9205 23.3333 35V31.6667H16.6667V35C16.6667 35.9205 15.9205 36.6667 15 36.6667C14.0795 36.6667 13.3333 35.9205 13.3333 35V31.3822C11.3914 30.6958 10 28.8437 10 26.6667V19.1667Z" fill="#FCFCFD"/>
<path id="Vector_2" d="M4.99967 15C4.07921 15 3.33301 15.7462 3.33301 16.6667V23.3333C3.33301 24.2538 4.07921 25 4.99967 25C5.92014 25 6.66634 24.2538 6.66634 23.3333V16.6667C6.66634 15.7462 5.92014 15 4.99967 15Z" fill="#FCFCFD"/>
<path id="Vector_3" d="M34.9997 15C34.0792 15 33.333 15.7462 33.333 16.6667V23.3333C33.333 24.2538 34.0792 25 34.9997 25C35.9202 25 36.6663 24.2538 36.6663 23.3333V16.6667C36.6663 15.7462 35.9202 15 34.9997 15Z" fill="#FCFCFD"/>
<path id="Vector_4" fill-rule="evenodd" clip-rule="evenodd" d="M12.5877 3.50965C13.411 3.098 14.4121 3.43172 14.8237 4.25502L15.6844 5.97643C16.9909 5.35053 18.4544 5 19.9997 5C21.545 5 23.0085 5.35053 24.315 5.97643L25.1757 4.25502C25.5873 3.43172 26.5885 3.098 27.4118 3.50965C28.235 3.9213 28.5689 4.92242 28.1572 5.74572L27.0674 7.92543C28.6952 9.55172 29.7652 11.7363 29.9655 14.1675C30.0034 14.6261 29.6267 15 29.1663 15H10.8331C10.3728 15 9.99607 14.6261 10.0339 14.1675C10.2343 11.7363 11.3043 9.55172 12.9322 7.92543L11.8423 5.74572C11.4306 4.92242 11.7644 3.9213 12.5877 3.50965Z" fill="#FCFCFD"/>
</g>
</svg>
