<svg id="Шар_1" data-name="Шар 1" xmlns="http://www.w3.org/2000/svg" width="36.83" height="40.17" viewBox="0 0 36.83 40.17"><defs><style>.cls-1,.cls-2{fill:#45b36b;}.cls-1{fill-rule:evenodd;}</style></defs><path class="cls-1" d="M32.36,22c-1.26-1.46-3.42-1.38-5.12-.46a18.43,18.43,0,0,1-17.65,0c-1.7-.92-3.86-1-5.13.46A18.36,18.36,0,0,0,0,34v2a4.09,4.09,0,0,0,4.09,4.09H32.73a4.1,4.1,0,0,0,4.1-4.09V34A18.37,18.37,0,0,0,32.36,22Z"/><path class="cls-2" d="M28.64,10.23A10.23,10.23,0,1,1,18.41,0,10.23,10.23,0,0,1,28.64,10.23Z"/></svg>