<svg id="Шар_1" data-name="Шар 1" xmlns="http://www.w3.org/2000/svg" width="30" height="32.72" viewBox="0 0 30 32.72"><defs><style>.cls-1,.cls-2{fill:#45b36b;}.cls-1{fill-rule:evenodd;}</style></defs><path class="cls-1" d="M26.36,17.93a3.33,3.33,0,0,0-4.17-.37,15,15,0,0,1-14.38,0,3.33,3.33,0,0,0-4.17.37A14.93,14.93,0,0,0,0,27.72v1.67a3.33,3.33,0,0,0,3.33,3.33H26.67A3.33,3.33,0,0,0,30,29.39V27.72A14.93,14.93,0,0,0,26.36,17.93Z"/><path class="cls-2" d="M23.33,8.33A8.33,8.33,0,1,1,15,0,8.33,8.33,0,0,1,23.33,8.33Z"/></svg>