<svg width="40" height="47" viewBox="0 0 40 47" fill="none" xmlns="http://www.w3.org/2000/svg">
<g clip-path="url(#clip0_2055_5691)" filter="url(#filter0_d_2055_5691)">
<g filter="url(#filter1_d_2055_5691)">
<path fill-rule="evenodd" clip-rule="evenodd" d="M31.3633 23.5415C30.336 22.3504 28.5714 22.4118 27.1916 23.167C25.0564 24.3357 22.6058 25.0002 20 25.0002C17.3942 25.0002 14.9436 24.3357 12.8084 23.167C11.4286 22.4118 9.66402 22.3504 8.63667 23.5415C6.37037 26.1692 5 29.5913 5 33.3335V35.0002C5 36.8411 6.49238 38.3335 8.33333 38.3335H31.6667C33.5076 38.3335 35 36.8411 35 35.0002V33.3335C35 29.5913 33.6296 26.1692 31.3633 23.5415Z" fill="#45B36B"/>
</g>
<g filter="url(#filter2_d_2055_5691)">
<path d="M28.3334 9.99984C28.3334 14.6022 24.6025 18.3332 20.0001 18.3332C15.3977 18.3332 11.6667 14.6022 11.6667 9.99984C11.6667 5.39746 15.3977 1.6665 20.0001 1.6665C24.6025 1.6665 28.3334 5.39746 28.3334 9.99984Z" fill="#45B36B"/>
</g>
</g>
<defs>
<filter id="filter0_d_2055_5691" x="-4" y="0" width="48" height="48" filterUnits="userSpaceOnUse" color-interpolation-filters="sRGB">
<feFlood flood-opacity="0" result="BackgroundImageFix"/>
<feColorMatrix in="SourceAlpha" type="matrix" values="0 0 0 0 0 0 0 0 0 0 0 0 0 0 0 0 0 0 127 0" result="hardAlpha"/>
<feOffset dy="4"/>
<feGaussianBlur stdDeviation="2"/>
<feComposite in2="hardAlpha" operator="out"/>
<feColorMatrix type="matrix" values="0 0 0 0 0 0 0 0 0 0 0 0 0 0 0 0 0 0 0.25 0"/>
<feBlend mode="normal" in2="BackgroundImageFix" result="effect1_dropShadow_2055_5691"/>
<feBlend mode="normal" in="SourceGraphic" in2="effect1_dropShadow_2055_5691" result="shape"/>
</filter>
<filter id="filter1_d_2055_5691" x="1" y="22.6196" width="38" height="23.7139" filterUnits="userSpaceOnUse" color-interpolation-filters="sRGB">
<feFlood flood-opacity="0" result="BackgroundImageFix"/>
<feColorMatrix in="SourceAlpha" type="matrix" values="0 0 0 0 0 0 0 0 0 0 0 0 0 0 0 0 0 0 127 0" result="hardAlpha"/>
<feOffset dy="4"/>
<feGaussianBlur stdDeviation="2"/>
<feComposite in2="hardAlpha" operator="out"/>
<feColorMatrix type="matrix" values="0 0 0 0 0 0 0 0 0 0 0 0 0 0 0 0 0 0 0.25 0"/>
<feBlend mode="normal" in2="BackgroundImageFix" result="effect1_dropShadow_2055_5691"/>
<feBlend mode="normal" in="SourceGraphic" in2="effect1_dropShadow_2055_5691" result="shape"/>
</filter>
<filter id="filter2_d_2055_5691" x="7.66675" y="1.6665" width="24.6667" height="24.6665" filterUnits="userSpaceOnUse" color-interpolation-filters="sRGB">
<feFlood flood-opacity="0" result="BackgroundImageFix"/>
<feColorMatrix in="SourceAlpha" type="matrix" values="0 0 0 0 0 0 0 0 0 0 0 0 0 0 0 0 0 0 127 0" result="hardAlpha"/>
<feOffset dy="4"/>
<feGaussianBlur stdDeviation="2"/>
<feComposite in2="hardAlpha" operator="out"/>
<feColorMatrix type="matrix" values="0 0 0 0 0 0 0 0 0 0 0 0 0 0 0 0 0 0 0.25 0"/>
<feBlend mode="normal" in2="BackgroundImageFix" result="effect1_dropShadow_2055_5691"/>
<feBlend mode="normal" in="SourceGraphic" in2="effect1_dropShadow_2055_5691" result="shape"/>
</filter>
<clipPath id="clip0_2055_5691">
<rect width="40" height="40" fill="white"/>
</clipPath>
</defs>
</svg>
