<svg width="16" height="16" viewBox="0 0 16 16" fill="none" xmlns="http://www.w3.org/2000/svg">
<g id="icons/Loading/Line">
<g id="Shape">
<path d="M8.00065 1.33331C7.63246 1.33331 7.33398 1.63179 7.33398 1.99998V3.99998C7.33398 4.36817 7.63246 4.66665 8.00065 4.66665C8.36884 4.66665 8.66732 4.36817 8.66732 3.99998V1.99998C8.66732 1.63179 8.36884 1.33331 8.00065 1.33331Z" fill="#23262F"/>
<path d="M8.00065 11.3333C7.63246 11.3333 7.33398 11.6318 7.33398 12V14C7.33398 14.3682 7.63246 14.6666 8.00065 14.6666C8.36884 14.6666 8.66732 14.3682 8.66732 14V12C8.66732 11.6318 8.36884 11.3333 8.00065 11.3333Z" fill="#23262F"/>
<path d="M14.0007 7.33331C14.3688 7.33331 14.6673 7.63179 14.6673 7.99998C14.6673 8.36817 14.3688 8.66665 14.0007 8.66665H12.0007C11.6325 8.66665 11.334 8.36817 11.334 7.99998C11.334 7.63179 11.6325 7.33331 12.0007 7.33331H14.0007Z" fill="#23262F"/>
<path d="M4.66732 7.99998C4.66732 7.63179 4.36884 7.33331 4.00065 7.33331H2.00065C1.63246 7.33331 1.33398 7.63179 1.33398 7.99998C1.33398 8.36817 1.63246 8.66665 2.00065 8.66665H4.00065C4.36884 8.66665 4.66732 8.36817 4.66732 7.99998Z" fill="#23262F"/>
<path d="M11.7719 3.286C12.0323 3.02565 12.4544 3.02565 12.7147 3.286C12.9751 3.54635 12.9751 3.96846 12.7147 4.22881L11.3005 5.64302C11.0402 5.90337 10.6181 5.90337 10.3577 5.64302C10.0974 5.38267 10.0974 4.96056 10.3577 4.70021L11.7719 3.286Z" fill="#23262F"/>
<path d="M5.64361 10.357C5.38326 10.0966 4.96115 10.0966 4.7008 10.357L3.28658 11.7712C3.02623 12.0315 3.02623 12.4536 3.28658 12.714C3.54693 12.9743 3.96904 12.9743 4.22939 12.714L5.64361 11.2998C5.90395 11.0394 5.90395 10.6173 5.64361 10.357Z" fill="#23262F"/>
<path d="M12.7147 11.7713C12.9751 12.0316 12.9751 12.4537 12.7147 12.7141C12.4544 12.9744 12.0323 12.9744 11.7719 12.7141L10.3577 11.2998C10.0973 11.0395 10.0973 10.6174 10.3577 10.357C10.618 10.0967 11.0401 10.0967 11.3005 10.357L12.7147 11.7713Z" fill="#23262F"/>
<path d="M5.64367 5.64293C5.90402 5.38258 5.90402 4.96047 5.64367 4.70012L4.22945 3.28591C3.9691 3.02556 3.54699 3.02556 3.28664 3.28591C3.0263 3.54626 3.0263 3.96837 3.28664 4.22872L4.70086 5.64293C4.96121 5.90328 5.38332 5.90328 5.64367 5.64293Z" fill="#23262F"/>
</g>
</g>
</svg>
